<svg width="51" height="45" viewBox="0 0 51 45" fill="none" xmlns="http://www.w3.org/2000/svg">
<g clip-path="url(#clip0_33_212)">
<path d="M2.57725 0V2.53647H7.56049V0H10.1377V6.06797H39.9678V0H42.5451V2.53647H47.5283V0H50.1056V45H47.5283V42.068H42.5451V45H39.9678V38.6547H10.1418V45H7.56457V42.068H2.57725V45H0V0H2.57725ZM30.0054 24.7979C30.3847 24.7327 30.7435 24.7449 31.0575 24.8183V17.4372L23.2442 19.6801V28.2519C23.2483 28.2968 23.2524 28.3457 23.2524 28.3947C23.2524 29.5487 22.0412 30.6946 20.5487 30.9515C19.0562 31.2084 17.845 30.4826 17.845 29.3285C17.845 28.1744 19.0562 27.0285 20.5487 26.7716C21.1115 26.6738 21.6334 26.7186 22.0657 26.8695V16.3158H22.1309L32.2401 13.9995V25.8867C32.2565 25.9724 32.2687 26.0621 32.2687 26.1518C32.2687 27.1142 31.2574 28.0725 30.0095 28.2886C28.7617 28.5048 27.7503 27.8971 27.7503 26.9307C27.7463 25.9683 28.7576 25.01 30.0054 24.7979ZM39.9678 8.64522H10.1418V36.0775H39.9719V8.64522H39.9678ZM47.5324 39.4907V34.6788H42.5492V39.4907H47.5324ZM47.5324 32.1015V27.2895H42.5492V32.1015H47.5324ZM47.5324 24.7082V19.8962H42.5492V24.7082H47.5324ZM47.5324 17.319V12.507H42.5492V17.319H47.5324ZM47.5324 9.92977V5.11781H42.5492V9.92977H47.5324ZM7.56049 39.4907V34.6788H2.57725V39.4907H7.56049ZM7.56049 32.1015V27.2895H2.57725V32.1015H7.56049ZM7.56049 24.7082V19.8962H2.57725V24.7082H7.56049ZM7.56049 17.319V12.507H2.57725V17.319H7.56049ZM7.56049 9.92977V5.11781H2.57725V9.92977H7.56049Z" fill="#657252"/>
</g>
<defs>
<clipPath id="clip0_33_212">
<rect width="50.1096" height="45" fill="white"/>
</clipPath>
</defs>
</svg>
