<svg width="50" height="27" viewBox="0 0 50 27" fill="none" xmlns="http://www.w3.org/2000/svg">
<g clip-path="url(#clip0_28_195)">
<path fill-rule="evenodd" clip-rule="evenodd" d="M1.06089 1.44151H6.21956V0.781494C6.21956 0.574229 6.30189 0.375453 6.44845 0.228894C6.59501 0.0823357 6.79378 0 7.00105 0C7.20799 0.00106396 7.40614 0.0837413 7.55247 0.23007C7.6988 0.376398 7.78148 0.574557 7.78254 0.781494V1.44151H12.9574C13.5405 1.44151 14.0183 2.08938 14.0183 2.65627C14.0183 3.23935 13.5405 3.87103 12.9574 3.87103H7.78254V5.08578C8.01735 5.11436 8.23367 5.2276 8.39096 5.40427C8.54825 5.58094 8.6357 5.8089 8.63692 6.04544V8.26845H16.2413V5.43806C16.2424 5.13984 16.3613 4.85414 16.5722 4.64327C16.7831 4.43239 17.0688 4.31345 17.367 4.31239H32.3935C32.6917 4.31345 32.9774 4.43239 33.1883 4.64327C33.3992 4.85414 33.5181 5.13984 33.5192 5.43806V8.31704H41.1236V6.09403C41.1248 5.85749 41.2122 5.62953 41.3695 5.45286C41.5268 5.27619 41.7431 5.16295 41.9779 5.13437V3.91962H36.8152C36.2321 3.91962 35.7543 3.27175 35.7543 2.70486C35.7543 2.12178 36.2321 1.4901 36.8152 1.4901H41.9739V0.781494C41.975 0.574557 42.0576 0.376398 42.204 0.23007C42.3503 0.0837413 42.5485 0.00106396 42.7554 0C42.9623 0.00106396 43.1605 0.0837413 43.3068 0.23007C43.4531 0.376398 43.5358 0.574557 43.5369 0.781494V1.44151H48.6956C49.2786 1.44151 49.7564 2.08938 49.7564 2.65627C49.7564 3.23935 49.2786 3.87103 48.6956 3.87103H43.5369V5.08578C43.772 5.11352 43.9889 5.22651 44.1463 5.40337C44.3038 5.58022 44.3909 5.80866 44.3913 6.04544V12.6051C44.3913 12.8611 44.2899 13.1066 44.1092 13.288C43.9286 13.4694 43.6835 13.5718 43.4276 13.5729H42.0873C41.8309 13.5718 41.5854 13.4695 41.4041 13.2883C41.2229 13.107 41.1206 12.8615 41.1195 12.6051V11.528H32.4178C32.3166 11.6374 32.2194 11.7467 32.1303 11.856C31.9096 12.1128 31.7054 12.3833 31.5189 12.6659C34.2201 13.5887 36.5948 15.2769 38.3539 17.5249C40.0888 19.8319 41.0037 22.6521 40.9535 25.5382C40.9535 25.927 40.7991 26.2998 40.5242 26.5747C40.2493 26.8496 39.8765 27.004 39.4877 27.004C39.0989 27.004 38.7261 26.8496 38.4512 26.5747C38.1763 26.2998 38.0219 25.927 38.0219 25.5382C38.0736 23.2904 37.3756 21.0894 36.0378 19.2822C34.6016 17.4811 32.6729 16.1363 30.4863 15.4112C30.3365 16.1846 30.2515 17.0025 30.1138 17.9217C29.9923 18.7599 29.4214 19.4604 28.5792 19.4604H21.3716C20.5253 19.4604 19.9585 18.7599 19.8329 17.9217C19.6912 16.9499 19.6102 16.1239 19.4483 15.3505C17.2426 16.0527 15.2876 17.3789 13.8199 19.1689C12.4214 20.9915 11.6884 23.2375 11.7427 25.5342C11.7427 25.9229 11.5882 26.2958 11.3133 26.5707C11.0384 26.8456 10.6656 27 10.2768 27C9.88809 27 9.51525 26.8456 9.24036 26.5707C8.96547 26.2958 8.81104 25.9229 8.81104 25.5342C8.75776 22.579 9.71645 19.6943 11.528 17.3589C13.2987 15.181 15.6504 13.5495 18.3104 12.6537C18.193 12.4877 18.0675 12.3176 17.9258 12.1435C17.784 11.9694 17.5694 11.7386 17.3751 11.5199H8.63692V12.6456C8.63586 12.902 8.53355 13.1475 8.35229 13.3287C8.17104 13.51 7.9255 13.6123 7.66917 13.6134H6.32888C6.07292 13.6123 5.82781 13.5099 5.64719 13.3285C5.46658 13.1471 5.36517 12.9016 5.36518 12.6456V6.09403C5.36553 5.85725 5.45268 5.62881 5.61013 5.45196C5.76758 5.2751 5.9844 5.16211 6.21956 5.13437V3.91962H1.06089C0.477804 3.90342 0 3.23935 0 2.67247C0 2.08938 0.477804 1.45771 1.06089 1.45771V1.44151ZM24.8782 9.2281C25.246 9.2273 25.6057 9.33563 25.9119 9.53936C26.2181 9.7431 26.4569 10.0331 26.5982 10.3726C26.7395 10.7122 26.7769 11.086 26.7056 11.4468C26.6344 11.8076 26.4577 12.1391 26.1979 12.3995C25.9382 12.6598 25.607 12.8372 25.2464 12.9092C24.8857 12.9813 24.5118 12.9447 24.172 12.8042C23.8321 12.6636 23.5416 12.4254 23.3372 12.1197C23.1328 11.8139 23.0237 11.4544 23.0237 11.0867C23.0237 10.5945 23.219 10.1223 23.5666 9.7739C23.9143 9.42546 24.386 9.22918 24.8782 9.2281ZM24.8782 6.83098C25.7201 6.83018 26.5433 7.07909 27.2437 7.54623C27.944 8.01336 28.4901 8.67773 28.8129 9.45529C29.1356 10.2328 29.2204 11.0887 29.0567 11.9144C28.8929 12.7402 28.4879 13.4989 27.8929 14.0945C27.2979 14.6901 26.5396 15.0958 25.714 15.2603C24.8884 15.4248 24.0325 15.3408 23.2546 15.0188C22.4768 14.6968 21.8119 14.1514 21.3441 13.4514C20.8763 12.7515 20.6266 11.9286 20.6266 11.0867C20.6266 9.9587 21.0744 8.87686 21.8716 8.07888C22.6688 7.2809 23.7502 6.83206 24.8782 6.83098Z" fill="#657252"/>
</g>
<defs>
<clipPath id="clip0_28_195">
<rect width="49.7564" height="27" fill="white"/>
</clipPath>
</defs>
</svg>
