<svg width="50" height="33" viewBox="0 0 50 33" fill="none" xmlns="http://www.w3.org/2000/svg">
<path d="M43.4034 31.8629C43.2591 32.0272 43.0839 32.1614 42.8879 32.2575C42.6919 32.3537 42.4789 32.41 42.2611 32.4232C42.0434 32.4364 41.8252 32.4063 41.6191 32.3346C41.413 32.2628 41.223 32.1509 41.0601 32.0052C40.736 31.7103 40.5411 31.2987 40.5178 30.86C40.4945 30.4213 40.6447 29.9911 40.9356 29.6632C42.7424 27.6701 44.219 25.3983 45.309 22.9347C46.2443 20.7988 46.7183 18.4879 46.6995 16.1544C46.6362 13.8175 46.0788 11.5209 45.0643 9.41724C43.8882 6.9865 42.3353 4.75901 40.4635 2.81812C40.1616 2.4948 39.9998 2.0643 40.0134 1.62115C40.0271 1.178 40.2152 0.758414 40.5364 0.454514C40.6951 0.303905 40.8818 0.18629 41.0859 0.108428C41.2899 0.0305652 41.5073 -0.00601008 41.7254 0.000803499C41.9436 0.00761707 42.1582 0.0576852 42.3571 0.148131C42.5559 0.238577 42.735 0.367617 42.8841 0.527838C45.0337 2.75707 46.8067 5.32411 48.133 8.12761C49.304 10.6207 49.94 13.3335 50 16.0897C50.0294 18.8454 49.484 21.5768 48.3991 24.1078C47.166 26.952 45.4785 29.5745 43.4034 31.8715V31.8629ZM16.2746 23.5644C16.4122 23.7345 16.5149 23.9304 16.5768 24.1406C16.6387 24.3509 16.6585 24.5713 16.6352 24.7893C16.6143 25.0076 16.5505 25.2196 16.4474 25.413C16.3444 25.6063 16.2041 25.7772 16.0348 25.9156C15.8655 26.0541 15.6706 26.1573 15.4612 26.2194C15.2519 26.2815 15.0324 26.3012 14.8154 26.2773C14.5979 26.2557 14.3868 26.1908 14.1945 26.0864C14.0022 25.982 13.8325 25.8402 13.6952 25.6692C12.5526 24.2801 11.633 22.72 10.9699 21.0455C10.3597 19.4963 10.0424 17.8464 10.0343 16.1803C10.0306 14.5243 10.3378 12.8824 10.9399 11.3409C11.5969 9.67893 12.5109 8.1316 13.648 6.75603C13.7853 6.58577 13.9547 6.44442 14.1465 6.34009C14.3382 6.23576 14.5486 6.17051 14.7655 6.14807C14.9824 6.12563 15.2016 6.14644 15.4105 6.20932C15.6194 6.2722 15.8139 6.37591 15.9828 6.51449C16.1508 6.65265 16.2901 6.82272 16.3927 7.015C16.4953 7.20728 16.5592 7.41799 16.5807 7.63509C16.6022 7.85219 16.581 8.07143 16.5182 8.28027C16.4553 8.48911 16.3522 8.68346 16.2146 8.85222C15.3195 9.93642 14.5957 11.1526 14.0686 12.458C13.1097 14.8432 13.1189 17.5111 14.0944 19.8896C14.6325 21.2137 15.3692 22.4472 16.2789 23.5471L16.2746 23.5644ZM36.3047 25.6692C36.0274 26.0127 35.6257 26.2316 35.1879 26.2777C34.7502 26.3238 34.3121 26.1933 33.9699 25.915C33.6278 25.6352 33.4102 25.2303 33.3648 24.7893C33.3418 24.571 33.3622 24.3503 33.4248 24.14C33.4874 23.9298 33.591 23.7341 33.7296 23.5644C34.638 22.4643 35.3733 21.2308 35.9098 19.9068C36.8911 17.531 36.9003 14.8622 35.9356 12.4796C35.41 11.1747 34.6861 9.95978 33.7897 8.8781L33.7639 8.84791C33.4964 8.50658 33.3714 8.07406 33.4155 7.64181C33.4595 7.20956 33.6691 6.81148 34 6.53174L34.0343 6.50155C34.3776 6.23044 34.8129 6.10526 35.2469 6.15283C35.6809 6.20039 36.0791 6.41693 36.3562 6.75603C37.4921 8.13093 38.4033 9.67853 39.0558 11.3409C39.6576 12.8841 39.9662 14.5271 39.9656 16.1846C39.9628 17.8488 39.6544 19.4982 39.0558 21.0498C38.3915 22.7234 37.4705 24.2821 36.3261 25.6692H36.3047ZM9.08581 29.6502C9.38194 29.98 9.53622 30.4142 9.51499 30.8579C9.50141 31.0794 9.44414 31.296 9.3465 31.495C9.24887 31.694 9.11282 31.8716 8.94627 32.0173C8.77973 32.163 8.58601 32.2739 8.37639 32.3437C8.16678 32.4134 7.94545 32.4406 7.72529 32.4236C7.28517 32.394 6.87395 32.1928 6.57937 31.8629C4.50429 29.5659 2.8168 26.9434 1.58366 24.0992C0.503618 21.5702 -0.0359219 18.8415 -2.8771e-05 16.0897C0.0597639 13.3334 0.695855 10.6207 1.86692 8.12761C3.19486 5.32504 4.96766 2.75825 7.11585 0.527838C7.42277 0.225233 7.83425 0.0536565 8.26418 0.0490189C8.69412 0.0443813 9.10917 0.207042 9.42248 0.502957C9.73579 0.798872 9.92306 1.2051 9.9451 1.63663C9.96715 2.06815 9.82225 2.49152 9.54074 2.81812C7.66609 4.75757 6.11148 6.9853 4.93559 9.41724C3.9303 11.5186 3.38027 13.8105 3.32186 16.1414C3.30571 18.4756 3.78259 20.7865 4.721 22.9217C5.81421 25.3846 7.29207 27.6561 9.09868 29.6502H9.08581Z" fill="#657252"/>
<path fill-rule="evenodd" clip-rule="evenodd" d="M29.4893 17.0903C30.2575 16.6158 30.2532 16.081 29.4893 15.6583L23.2146 11.2718C22.588 10.8923 21.9271 11.1166 21.9528 11.9016L21.9743 20.7737C22.0301 21.6364 22.5365 21.8606 23.2618 21.4638L29.4893 17.0903Z" fill="#657252"/>
</svg>
