<svg width="38" height="56" viewBox="0 0 38 56" fill="none" xmlns="http://www.w3.org/2000/svg">
<path d="M36.717 35.7031C36.7698 34.9455 36.9253 34.1986 37.1792 33.4828C37.6903 32.2818 37.8138 30.9512 37.5327 29.6766C36.9903 28.4556 36.0895 27.4284 34.9499 26.7313C34.3449 26.3284 33.8016 25.84 33.3367 25.2812C32.9393 24.6578 32.6341 23.9801 32.4305 23.2694C32.1279 21.9799 31.4348 20.8153 30.4458 19.9344C29.3094 19.262 27.9914 18.9611 26.6758 19.0734C26.1365 19.0744 25.5977 19.0411 25.0627 18.9738L31.2433 15.1675C31.376 15.0889 31.4864 14.9777 31.5641 14.8445C31.6418 14.7113 31.6842 14.5604 31.6874 14.4062V1.71875C31.6874 1.4784 31.5919 1.24789 31.4219 1.07793C31.252 0.90798 31.0215 0.8125 30.7811 0.8125H7.21861C6.97826 0.8125 6.74775 0.90798 6.5778 1.07793C6.40784 1.24789 6.31236 1.4784 6.31236 1.71875V14.4062C6.31301 14.5611 6.35333 14.7132 6.42948 14.8481C6.50564 14.9829 6.61508 15.096 6.74736 15.1766L12.928 18.9828C12.3929 19.0502 11.8541 19.0835 11.3149 19.0825C9.99922 18.9701 8.6813 19.2711 7.54486 19.9434C6.55377 20.8264 5.86045 21.9946 5.56017 23.2875C5.35481 23.9948 5.04966 24.6692 4.65392 25.2903C4.19121 25.8452 3.65098 26.3305 3.04986 26.7313C1.91021 27.4284 1.00945 28.4556 0.46705 29.6766C0.185888 30.9512 0.309441 32.2818 0.820487 33.4828C1.07442 34.1986 1.2299 34.9455 1.28267 35.7031C1.23401 36.4761 1.07847 37.2385 0.820487 37.9688C0.309441 39.1698 0.185888 40.5004 0.46705 41.775C1.01707 42.9792 1.91712 43.9898 3.04986 44.675C3.6548 45.0779 4.19816 45.5663 4.66299 46.125C5.06039 46.7485 5.36562 47.4261 5.56924 48.1369C5.87179 49.4263 6.56489 50.591 7.55393 51.4719C8.68521 52.16 10.0035 52.4769 11.3239 52.3781C12.0749 52.3314 12.8287 52.3925 13.5624 52.5594C14.2134 52.8296 14.8235 53.1895 15.3749 53.6287C16.3965 54.505 17.6611 55.0488 18.9999 55.1875C20.3386 55.0488 21.6032 54.505 22.6249 53.6287C23.1762 53.1895 23.7863 52.8296 24.4374 52.5594C25.1596 52.3768 25.9041 52.2974 26.6486 52.3237C27.9685 52.4153 29.2846 52.0989 30.4186 51.4175C31.4076 50.5366 32.1007 49.3719 32.4033 48.0825C32.6069 47.3717 32.9121 46.6941 33.3096 46.0706C33.7865 45.5291 34.339 45.0591 34.9499 44.675C36.0895 43.9778 36.9903 42.9506 37.5327 41.7297C37.8138 40.4551 37.6903 39.1245 37.1792 37.9234C36.9253 37.2077 36.7698 36.4607 36.717 35.7031ZM12.6561 16.69V2.625H25.3436V16.69L23.078 18.0856L22.6249 17.7775C21.6032 16.9013 20.3386 16.3575 18.9999 16.2188C17.6611 16.3575 16.3965 16.9013 15.3749 17.7775L14.9399 18.0856L12.6561 16.69ZM18.9999 47.9375C16.5801 47.9375 14.2147 47.22 12.2028 45.8756C10.1909 44.5313 8.62276 42.6206 7.69677 40.385C6.77078 38.1495 6.5285 35.6896 7.00057 33.3163C7.47263 30.9431 8.63784 28.7631 10.3489 27.0521C12.0599 25.3411 14.2398 24.1759 16.6131 23.7038C18.9863 23.2318 21.4462 23.474 23.6818 24.4C25.9173 25.326 27.828 26.8941 29.1724 28.9061C30.5167 30.918 31.2342 33.2834 31.2342 35.7031C31.2294 38.9464 29.9389 42.0555 27.6456 44.3488C25.3522 46.6422 22.2431 47.9327 18.9999 47.9375Z" fill="white"/>
<path d="M24.8541 37.5065C24.8051 37.556 24.7682 37.616 24.7462 37.682C24.7242 37.748 24.7177 37.8182 24.7272 37.8871L25.0534 40.6059C25.1054 41.0068 25.0486 41.4142 24.8892 41.7857C24.7298 42.1571 24.4735 42.4789 24.1472 42.7174C23.8123 42.965 23.4175 43.1189 23.0034 43.1635C22.5894 43.2081 22.1709 43.1417 21.7909 42.9712L19.2444 41.8203C19.173 41.7888 19.0958 41.7726 19.0178 41.7726C18.9398 41.7726 18.8626 41.7888 18.7913 41.8203L16.2447 42.9712C15.8647 43.1417 15.4463 43.2081 15.0322 43.1635C14.6181 43.1189 14.2234 42.965 13.8884 42.7174C13.5621 42.4789 13.3058 42.1571 13.1464 41.7857C12.987 41.4142 12.9303 41.0068 12.9822 40.6059L13.3084 37.8871C13.3179 37.8182 13.3114 37.748 13.2894 37.682C13.2674 37.616 13.2305 37.556 13.1816 37.5065L11.2784 35.4856C10.9966 35.1912 10.7997 34.8259 10.7088 34.4286C10.6178 34.0313 10.6362 33.6167 10.7619 33.229C10.8944 32.8285 11.1329 32.4712 11.452 32.1952C11.7711 31.9192 12.1589 31.7347 12.5744 31.6612L15.2931 31.1265C15.366 31.1129 15.4351 31.0841 15.496 31.042C15.5569 30.9998 15.6082 30.9452 15.6466 30.8818L17.015 28.4893C17.2214 28.1338 17.5175 27.8387 17.8738 27.6335C18.23 27.4284 18.6339 27.3204 19.045 27.3204C19.4561 27.3204 19.86 27.4284 20.2162 27.6335C20.5725 27.8387 20.8686 28.1338 21.075 28.4893L22.4434 30.8818C22.4818 30.9452 22.5331 30.9998 22.594 31.042C22.6549 31.0841 22.7241 31.1129 22.7969 31.1265L25.5156 31.6612C25.9311 31.7347 26.3189 31.9192 26.638 32.1952C26.9571 32.4712 27.1956 32.8285 27.3281 33.229C27.4539 33.6167 27.4722 34.0313 27.3813 34.4286C27.2903 34.8259 27.0934 35.1912 26.8116 35.4856L24.8541 37.5065Z" fill="white"/>
</svg>
