<svg width="51" height="46" viewBox="0 0 51 46" fill="none" xmlns="http://www.w3.org/2000/svg">
<g clip-path="url(#clip0_33_210)">
<path fill-rule="evenodd" clip-rule="evenodd" d="M44.8668 8.05123L49.8799 12.1076C50.1976 12.3657 50.4001 12.7391 50.4432 13.1461C50.4863 13.5532 50.3664 13.9607 50.1098 14.2795L47.8681 17.0509L40.4532 11.0566L42.699 8.28115C42.9583 7.96531 43.3315 7.76415 43.7379 7.72113C44.1443 7.67811 44.5513 7.79669 44.8709 8.05123H44.8668ZM8.65066 12.6496C8.30439 12.6496 7.97231 12.512 7.72746 12.2672C7.48261 12.0223 7.34506 11.6903 7.34506 11.344C7.34506 10.9977 7.48261 10.6656 7.72746 10.4208C7.97231 10.1759 8.30439 10.0384 8.65066 10.0384H30.4313C30.7775 10.0384 31.1096 10.1759 31.3545 10.4208C31.5993 10.6656 31.7369 10.9977 31.7369 11.344C31.7369 11.6903 31.5993 12.0223 31.3545 12.2672C31.1096 12.512 30.7775 12.6496 30.4313 12.6496H8.65066ZM3.89629 0H35.1898C36.2218 0.00432269 37.2103 0.416211 37.9401 1.14597C38.6698 1.87573 39.0817 2.86426 39.086 3.89629V6.20778L37.2467 8.47822C37.0573 8.71249 36.8948 8.96727 36.7622 9.23777C36.6637 9.31578 36.5652 9.402 36.4707 9.49232V3.89629C36.4697 3.5565 36.3345 3.23088 36.0946 2.99024C35.8547 2.74959 35.5295 2.61337 35.1898 2.61121H3.89629C3.5558 2.61229 3.22956 2.74803 2.9888 2.9888C2.74803 3.22956 2.61229 3.5558 2.61121 3.89629V42.1037C2.61325 42.444 2.7489 42.7699 2.98893 43.0111C3.10772 43.1308 3.24907 43.2259 3.40481 43.2907C3.56055 43.3556 3.72759 43.3889 3.89629 43.3888H35.1898C35.3583 43.3888 35.5252 43.3555 35.6809 43.2909C35.8366 43.2263 35.978 43.1315 36.097 43.0122C36.216 42.8928 36.3103 42.7511 36.3744 42.5952C36.4385 42.4393 36.4713 42.2723 36.4707 42.1037V36.2121L37.2549 35.8795C37.9546 35.621 38.5706 35.1767 39.0368 34.5944L39.086 34.537V42.1037C39.0763 43.1326 38.6622 44.1163 37.9332 44.8423C37.2041 45.5683 36.2186 45.9782 35.1898 45.9836H3.89629C2.86643 45.9814 1.87912 45.5725 1.14936 44.8458C0.419601 44.1191 0.00649532 43.1336 0 42.1037L0 3.89629C0.00432269 2.86426 0.416211 1.87573 1.14597 1.14597C1.87573 0.416211 2.86426 0.00432269 3.89629 0ZM8.65066 35.9657C8.31652 35.947 8.00222 35.8011 7.77229 35.5579C7.54237 35.3147 7.41425 34.9927 7.41425 34.6581C7.41425 34.3234 7.54237 34.0014 7.77229 33.7583C8.00222 33.5151 8.31652 33.3691 8.65066 33.3504H23.0698C22.9538 34.217 22.9125 35.092 22.9466 35.9657H8.65066ZM8.65066 28.1937C8.31652 28.175 8.00222 28.029 7.77229 27.7858C7.54237 27.5427 7.41425 27.2207 7.41425 26.886C7.41425 26.5514 7.54237 26.2294 7.77229 25.9862C8.00222 25.743 8.31652 25.5971 8.65066 25.5784H24.3138V25.6892L23.8827 28.1937H8.65066ZM8.65066 20.4216C8.30439 20.4216 7.97231 20.2841 7.72746 20.0392C7.48261 19.7944 7.34506 19.4623 7.34506 19.116C7.34506 18.7698 7.48261 18.4377 7.72746 18.1928C7.97231 17.948 8.30439 17.8104 8.65066 17.8104H29.7415L27.6435 20.4216H8.65066ZM35.822 32.0243L30.5586 34.2701C26.7197 35.6948 26.8922 36.4995 27.274 32.6894L28.4277 26.03L39.3324 12.4813L46.7226 18.4755L35.8302 32.0243H35.822ZM29.6881 27.0523L34.5575 30.9896L31.1005 32.4677C28.3908 33.6296 28.4647 34.2044 28.9368 31.429L29.6881 27.0523Z" fill="#657252"/>
</g>
<defs>
<clipPath id="clip0_33_210">
<rect width="50.4506" height="46" fill="white"/>
</clipPath>
</defs>
</svg>
