<svg width="45" height="51" viewBox="0 0 45 51" fill="none" xmlns="http://www.w3.org/2000/svg">
<path d="M30.7373 18.6177C30.4274 18.3682 30.0236 18.2433 29.6146 18.2705C29.2057 18.2978 28.8251 18.4749 28.5566 18.763L22.4556 25.3117L21.182 23.9292C21.0501 23.785 20.8889 23.6664 20.7076 23.5802C20.5264 23.4941 20.3286 23.4421 20.1256 23.4271C19.9227 23.4122 19.7186 23.4347 19.525 23.4933C19.3314 23.5519 19.1522 23.6455 18.9976 23.7686C18.843 23.8918 18.716 24.0421 18.6241 24.211C18.5321 24.3799 18.4769 24.564 18.4616 24.7528C18.4464 24.9415 18.4713 25.1312 18.5351 25.311C18.5989 25.4908 18.7002 25.6571 18.8332 25.8004L21.2746 28.4498C21.4194 28.6068 21.5988 28.7329 21.8007 28.8195C22.0026 28.9062 22.2222 28.9514 22.4446 28.952H22.449C22.6707 28.9519 22.8897 28.9075 23.0913 28.8218C23.2929 28.7361 23.4723 28.611 23.6173 28.4551L30.8937 20.6449C31.0266 20.5023 31.128 20.3367 31.1921 20.1576C31.2561 19.9785 31.2816 19.7895 31.2671 19.6012C31.2526 19.413 31.1983 19.2292 31.1074 19.0605C31.0165 18.8917 30.8908 18.7413 30.7373 18.6177Z" fill="white"/>
<path d="M44.2531 14.1613C44.219 13.205 43.8284 12.2894 43.1482 11.5713C42.468 10.8533 41.5405 10.3775 40.5245 10.2253C34.4536 9.21119 28.6846 4.25941 25.7883 1.40064C25.3703 0.986885 24.8669 0.655743 24.3082 0.427014C23.7494 0.198286 23.1468 0.0766679 22.5363 0.0694318L22.5305 0.070674L22.5241 0.0694318C21.9017 0.0655166 21.2852 0.181564 20.7134 0.410254C20.1417 0.638945 19.6271 0.975318 19.2021 1.39816C16.3032 4.25941 10.5342 9.21119 4.46333 10.2253C3.44785 10.3828 2.52236 10.8624 1.84413 11.5826C1.1659 12.3028 0.776794 13.2191 0.742925 14.1759C0.664796 18.3284 1.03309 22.4778 1.84231 26.5622L1.8432 26.5642C4.36064 38.9088 10.9949 47.1752 21.0325 50.4711C21.5119 50.627 22.0163 50.7063 22.5241 50.7056C23.0196 50.7062 23.5113 50.6255 23.9766 50.467C34.0109 47.0858 40.6515 38.8199 43.1803 26.563V26.5616C44.0014 22.4742 44.361 18.3182 44.2531 14.1613ZM11.33 25.235H4.02844C3.37542 21.5934 3.08029 17.904 3.14672 14.2126C3.1662 13.7726 3.35115 13.3528 3.66933 13.0264C3.98751 12.7001 4.41875 12.488 4.88789 12.427C11.6383 11.2985 17.8501 5.99334 20.9542 2.92911C21.0644 2.81944 21.1879 2.72201 21.3222 2.63877V15.1418C18.6255 15.4159 16.127 16.5896 14.2898 18.4455C12.4525 20.3013 11.401 22.7135 11.33 25.235ZM22.5216 33.0205C21.3183 33.0221 20.1298 32.7739 19.0427 32.2943C17.9556 31.8146 16.9973 31.1155 16.2377 30.2478C15.478 29.3801 14.9361 28.3658 14.6514 27.2788C14.3667 26.1917 14.3465 25.0592 14.5921 23.964C14.8378 22.8687 15.3431 21.8382 16.0714 20.9475C16.7996 20.0569 17.7324 19.3285 18.8017 18.8155C19.8711 18.3025 21.05 18.0178 22.2527 17.9821C23.4553 17.9465 24.6514 18.1607 25.7537 18.6093L26.8735 17.4073C27.2277 17.0271 27.6657 16.7221 28.1578 16.5132C28.65 16.3043 29.1847 16.1963 29.7256 16.1965C30.4487 16.1967 31.1564 16.3901 31.7646 16.7537C32.3727 17.1173 32.8557 17.6357 33.156 18.2473C33.4563 18.8588 33.5612 19.5377 33.4583 20.2032C33.3555 20.8686 33.0491 21.4925 32.5756 22.0007L30.4871 24.2423C30.692 25.3214 30.6394 26.4291 30.333 27.4872C30.0265 28.5452 29.4738 29.5277 28.7138 30.3652C27.9538 31.2026 27.0052 31.8745 25.935 32.3334C24.8649 32.7922 23.7 33.0268 22.5216 33.0205ZM23.7261 48.1658V35.8565C26.1073 35.6132 28.3424 34.6681 30.1045 33.1592C31.8667 31.6504 33.0636 29.6569 33.5202 27.4704H40.5236C38.7023 35.0933 34.2962 44.3329 23.7261 48.1658Z" fill="white"/>
</svg>
