<svg width="51" height="42" viewBox="0 0 51 42" fill="none" xmlns="http://www.w3.org/2000/svg">
<path d="M5.1633 32.0147L5.28993 9.26007H2.7573V38.213C6.23763 37.3015 9.73021 36.7214 13.2473 36.6966C16.4948 36.6759 19.7423 37.1358 22.9979 38.2544C20.9759 36.593 18.7211 35.3707 16.3151 34.5752C13.2841 33.5726 10.008 33.2411 6.6502 33.5311C5.89041 33.5933 5.22866 33.0215 5.1633 32.255C5.15513 32.1722 5.15513 32.0934 5.1633 32.0147ZM42.3276 8.07096C42.3195 8.00467 42.3113 7.93423 42.3113 7.85965C42.3113 7.78922 42.3154 7.71878 42.3276 7.64835V3.04107C39.1414 2.73447 35.8572 3.09079 32.9896 4.19289C30.3099 5.22455 27.9978 6.91914 26.4946 9.34707V35.5903C28.8312 34.0076 31.2208 32.7066 33.6758 31.82C36.474 30.809 39.3497 30.3284 42.3276 30.5687V8.07096ZM45.0849 6.46338H48.8185C49.5783 6.46338 50.1951 7.08901 50.1951 7.85965V40.036C50.1951 40.8067 49.5783 41.4323 48.8185 41.4323C48.6633 41.4323 48.5122 41.4074 48.3733 41.3577C44.5335 40.2432 40.7182 39.5016 36.9397 39.4767C33.2551 39.4518 29.5746 40.1106 25.8778 41.7638C25.649 41.9171 25.3753 41.9999 25.0935 41.9958C24.8157 41.9999 24.542 41.9171 24.3092 41.7638C20.6164 40.1065 16.9319 39.4518 13.2473 39.4767C9.46878 39.5016 5.65757 40.2432 1.81369 41.3577C1.67481 41.4074 1.52366 41.4323 1.36844 41.4323C0.616818 41.4364 0 40.8108 0 40.0402V7.85965C0 7.08901 0.616818 6.46338 1.37661 6.46338H5.30219L5.3267 1.7981C5.33078 1.12689 5.79646 0.571698 6.42145 0.439114C10.0447 -0.327385 14.4483 -0.136796 18.3085 1.36306C20.9759 2.39887 23.3983 4.05202 25.167 6.43852C26.9521 4.2136 29.3377 2.61431 32.0215 1.58265C35.6897 0.169804 39.9216 -0.169942 43.9044 0.422541C44.5907 0.521979 45.0808 1.12275 45.0808 1.80224V6.46338H45.0849ZM27.8304 38.0431C30.8736 37.0736 33.9128 36.6759 36.9519 36.6924C40.469 36.7132 43.9616 37.2974 47.4419 38.2089V9.26007H45.0849V32.139C45.0849 32.9097 44.4681 33.5353 43.7083 33.5353C43.598 33.5353 43.4918 33.5229 43.3897 33.498C40.3751 33.0174 37.4544 33.4151 34.6031 34.4468C32.3074 35.2796 30.0525 36.5226 27.8304 38.0431ZM23.7414 35.321V9.30564C22.2994 6.7244 19.9669 4.99668 17.3322 3.9733C14.3461 2.81319 10.9924 2.55217 8.06766 2.97478L7.91243 30.6557C11.1027 30.5397 14.2236 30.9499 17.1606 31.9236C19.4972 32.6942 21.7112 33.8253 23.7414 35.321Z" fill="#657252"/>
</svg>
