<svg width="51" height="29" viewBox="0 0 51 29" fill="none" xmlns="http://www.w3.org/2000/svg">
<g clip-path="url(#clip0_28_197)">
<path fill-rule="evenodd" clip-rule="evenodd" d="M37.5359 26.4038L38.3483 23.3054L37.789 22.693C37.5359 22.3256 37.4828 22.0031 37.6216 21.7256C37.9237 21.1255 38.5524 21.2357 39.1402 21.2357C39.7566 21.2357 40.5159 21.1173 40.7078 21.8888C40.7731 22.146 40.6914 22.4154 40.5118 22.693L39.9526 23.3054L40.4383 25.1669L43.6592 22.3665L45.3288 22.4073C44.7532 21.252 44.0225 20.2723 43.1734 19.3497C44.7736 19.9702 46.4106 20.5825 47.623 21.3418C48.3946 21.8235 48.7905 22.1909 49.1049 22.7747C49.7662 24.0198 49.8397 25.1342 49.9376 26.4813L50.1703 27.6488H41.0915L41.0997 27.6774H37.6257C37.5481 28.4734 37.0909 28.9347 36.1969 29H25.1791H13.9775C13.0794 28.9307 12.6222 28.4694 12.5487 27.6652L12.859 22.7502C12.9447 21.6153 13.2631 20.7172 13.7815 20.0314C14.1244 19.5783 14.549 19.2436 15.0184 18.9823C16.5084 18.1536 19.9865 17.9087 21.3377 16.6922L23.4074 22.7788L24.4483 19.166L23.9381 18.6067C23.7095 18.272 23.6564 17.9781 23.787 17.725C24.0646 17.178 24.6361 17.28 25.1709 17.28C25.7302 17.28 26.42 17.1739 26.5956 17.876C26.6527 18.1087 26.5793 18.3537 26.416 18.6067L25.9057 19.166L26.9466 22.7788L28.8204 16.6922C30.1716 17.9087 33.6537 18.1536 35.1396 18.9823C35.6091 19.2436 36.0377 19.5783 36.3765 20.0314C36.895 20.7172 37.2134 21.6113 37.2991 22.7502L37.5359 26.4038ZM6.24169 19.6967L7.62965 23.7748L8.3277 21.3541L7.9848 20.9785C7.82967 20.754 7.79702 20.558 7.88274 20.3866C8.06644 20.0192 8.45017 20.0886 8.8094 20.0886C9.18497 20.0886 9.64626 20.0192 9.76464 20.4886C9.80546 20.6438 9.75239 20.8111 9.64625 20.9785L9.30335 21.3541L10.0014 23.7748L11.2587 19.6967C11.4424 19.86 11.6955 19.9988 11.9935 20.1172C11.8915 20.3335 11.7976 20.5621 11.7159 20.7989C11.5037 21.4153 11.3649 22.1011 11.3077 22.8645H11.3118C11.3118 22.8808 11.3077 22.9012 11.3077 22.9176L11.0056 27.6448H8.82165H0.959319C0.355152 27.5999 0.0489865 27.2896 0 26.7508L0.208193 23.7544C0.265343 22.9951 0.4817 22.395 0.828688 21.9337C1.05729 21.6317 1.34305 21.4071 1.65738 21.2316C2.65343 20.6764 5.33544 20.5131 6.24169 19.6967ZM5.55997 13.9163C5.42525 13.9285 5.3232 13.9571 5.24972 14.0061C5.2089 14.0347 5.17624 14.0714 5.15583 14.1122C5.13133 14.1612 5.12317 14.2265 5.12317 14.2959C5.13133 14.5205 5.24972 14.8225 5.4824 15.1695L5.48649 15.1777L6.26211 16.4105C6.57235 16.9004 6.89485 17.4025 7.2949 17.7699C7.67455 18.1169 8.13584 18.3537 8.74817 18.3537C9.40949 18.3537 9.89119 18.1087 10.2872 17.7413C10.6995 17.3535 11.026 16.8228 11.3485 16.2921L12.218 14.8593C12.3936 14.4592 12.4466 14.2184 12.3895 14.1041C12.3528 14.0347 12.2099 14.0143 11.9731 14.0347C11.8221 14.0673 11.6629 14.0388 11.4955 13.953L11.9323 12.6467C10.3361 12.6263 9.2462 12.3487 7.95214 11.5241C7.52759 11.2547 7.40104 10.9444 6.97649 10.973C6.654 11.0343 6.38457 11.1771 6.1723 11.4098C5.96819 11.6303 5.81306 11.9323 5.71101 12.3201L5.96819 13.8836C5.83756 13.9653 5.69876 13.9734 5.55997 13.9163ZM12.4711 13.5285C12.6589 13.5856 12.7977 13.6918 12.8794 13.8591C13.01 14.1245 12.961 14.5205 12.712 15.0838C12.7079 15.0961 12.7038 15.1042 12.6957 15.1165L11.8139 16.5697C11.471 17.1331 11.124 17.6964 10.6586 18.1332C10.1729 18.5904 9.57278 18.8925 8.75225 18.8884C7.9848 18.8884 7.40921 18.5945 6.93567 18.1618C6.48254 17.7454 6.13556 17.2147 5.80898 16.6922L5.03336 15.4594C4.74352 15.0267 4.59656 14.6348 4.58432 14.3082C4.58024 14.149 4.60473 14.0061 4.66596 13.8836C4.7272 13.7489 4.82109 13.6387 4.95172 13.553C5.01295 13.5122 5.08643 13.4754 5.16399 13.4468C5.11501 12.7855 5.09868 11.9691 5.13133 11.2833C5.14766 11.1159 5.18032 10.9485 5.22522 10.7812C5.42525 10.0749 5.9192 9.50343 6.53561 9.11153C6.75197 8.97274 6.98874 8.85844 7.24184 8.76863C8.73184 8.22978 10.7035 8.5237 11.7608 9.66671C12.1895 10.1321 12.463 10.7485 12.5201 11.5649L12.4711 13.5285ZM20.2682 8.07057C20.0967 8.09098 19.962 8.13589 19.864 8.2012C19.8028 8.24202 19.7538 8.29917 19.7252 8.36041C19.6926 8.43389 19.6762 8.52778 19.6762 8.63392C19.6844 8.97274 19.864 9.4177 20.2151 9.93206L20.2233 9.94022L21.3785 11.7813C21.8398 12.5161 22.3215 13.2631 22.9175 13.8061C23.4849 14.3245 24.1748 14.6756 25.0811 14.6797C26.069 14.6837 26.7874 14.3163 27.3753 13.7693C27.9917 13.1937 28.4816 12.3977 28.9633 11.6058L30.2614 9.46669C30.5227 8.87068 30.6043 8.51145 30.5186 8.34C30.4655 8.22978 30.2369 8.20528 29.8532 8.24202C29.8246 8.24611 29.796 8.24611 29.7675 8.24202C29.6082 8.24202 29.4368 8.2012 29.249 8.11548L29.8328 6.16418C27.4488 6.13561 25.82 5.71922 23.8932 4.48639C23.2604 4.08226 23.0686 3.62097 22.4358 3.66587C21.9582 3.75976 21.5541 3.97204 21.2356 4.31494C20.9295 4.6456 20.6968 5.09464 20.5457 5.67023L20.9581 8.02975C20.7131 8.1563 20.4845 8.16446 20.2682 8.07057ZM30.637 7.48682C30.9186 7.56846 31.1227 7.73175 31.2493 7.98076C31.4452 8.38082 31.3718 8.96866 31.0003 9.80959C30.9921 9.82592 30.984 9.84225 30.9758 9.8545L29.6572 12.0262C29.147 12.8672 28.6285 13.7122 27.9305 14.3613C27.2038 15.043 26.3098 15.4961 25.0852 15.492C23.9421 15.4879 23.0808 15.0511 22.3746 14.4062C21.6969 13.7857 21.1826 12.9937 20.6927 12.214L19.5374 10.3729C19.1088 9.73203 18.8843 9.14011 18.868 8.65433C18.8598 8.41756 18.9006 8.20528 18.9904 8.0175C19.0843 7.81747 19.2231 7.6501 19.415 7.52356C19.5089 7.45824 19.615 7.40517 19.7334 7.36435C19.664 6.38054 19.6395 5.16404 19.6844 4.13941C19.7089 3.89039 19.7579 3.64138 19.8273 3.39236C20.1212 2.33507 20.8642 1.48597 21.7827 0.902216C22.1052 0.698106 22.4603 0.526653 22.8359 0.39194C25.0566 -0.412255 28.0039 0.0286238 29.5797 1.73499C30.2206 2.42896 30.6247 3.35154 30.7104 4.56804L30.637 7.48682ZM34.6498 17.5372L35.6703 17.5086L36.5153 17.4882C35.5274 14.447 35.8581 11.6507 38.238 9.27482C38.6422 10.5811 39.5443 11.6547 41.0833 12.4508C41.8181 12.9978 42.5325 13.6591 43.2183 14.4143C43.3408 13.9122 42.8754 13.2999 42.308 12.6712C42.8305 12.9284 43.3122 13.2917 43.651 13.9857C44.047 14.794 44.0388 15.4716 43.9123 16.3493C43.8511 16.7575 43.7531 17.1372 43.6102 17.4841H45.0186C46.5045 14.3041 45.5615 9.58915 42.5243 7.58887C41.5936 6.97654 40.9241 6.99695 39.8301 7.00103C38.5769 7.00103 37.94 7.04185 36.8664 7.74808C35.2866 8.79312 34.315 10.6015 33.9068 13.1121C33.8293 14.3653 33.7762 16.5289 34.6498 17.5372Z" fill="#657252"/>
</g>
<defs>
<clipPath id="clip0_28_197">
<rect width="50.1622" height="29" fill="white"/>
</clipPath>
</defs>
</svg>
