<svg width="50" height="50" viewBox="0 0 50 50" fill="none" xmlns="http://www.w3.org/2000/svg">
<path d="M17.4095 10.4399L19.7171 12.1166C19.9817 12.3089 20.1787 12.58 20.2797 12.8911C20.3808 13.2022 20.3807 13.5373 20.2796 13.8484L19.3988 16.5614C19.2977 16.8725 19.2978 17.2076 19.3989 17.5187C19.5 17.8297 19.6969 18.1008 19.9615 18.2931C20.2262 18.4853 20.5449 18.5889 20.8719 18.5889C21.199 18.5889 21.5177 18.4854 21.7824 18.2931L24.0903 16.6165C24.3549 16.4242 24.6735 16.3206 25.0006 16.3206C25.3277 16.3206 25.6464 16.4242 25.911 16.6165L28.2189 18.2931C28.4836 18.4854 28.8023 18.5889 29.1293 18.5889C29.4564 18.5889 29.7751 18.4853 30.0397 18.2931C30.3044 18.1008 30.5013 17.8297 30.6024 17.5187C30.7035 17.2076 30.7036 16.8725 30.6025 16.5614L29.7206 13.8484C29.6195 13.5373 29.6195 13.2022 29.7205 12.8911C29.8216 12.58 30.0185 12.3089 30.2831 12.1166L32.5909 10.4399C32.8555 10.2476 33.0525 9.97652 33.1535 9.66542C33.2546 9.35431 33.2546 9.01919 33.1535 8.70809C33.0524 8.397 32.8554 8.12589 32.5908 7.93362C32.3262 7.74136 32.0074 7.63781 31.6803 7.63781H28.8285C28.5013 7.63777 28.1826 7.5342 27.918 7.34194C27.6534 7.14967 27.4564 6.87858 27.3553 6.5675L26.4735 3.85453C26.3725 3.54342 26.1755 3.2723 25.9109 3.08002C25.6462 2.88774 25.3275 2.78418 25.0004 2.78418C24.6733 2.78418 24.3546 2.88774 24.0899 3.08002C23.8253 3.2723 23.6283 3.54342 23.5273 3.85453L22.6457 6.5675C22.5446 6.87865 22.3476 7.14979 22.0829 7.34206C21.8181 7.53433 21.4994 7.63786 21.1722 7.63781H18.32C17.9929 7.63781 17.6742 7.74136 17.4095 7.93362C17.1449 8.12589 16.9479 8.397 16.8468 8.70809C16.7457 9.01919 16.7457 9.35431 16.8468 9.66542C16.9479 9.97652 17.1448 10.2476 17.4095 10.4399Z" fill="white"/>
<path d="M29.2491 34.4833C29.0844 34.4125 28.944 34.2949 28.8455 34.1451C28.7469 33.9953 28.6944 33.8199 28.6944 33.6406C28.6932 33.5125 28.7184 33.3855 28.7684 33.2675C28.8184 33.1495 28.892 33.0431 28.9849 32.9548C29.0415 32.9008 29.0957 32.8476 29.1364 32.8048C29.4236 32.5023 29.6771 32.1694 29.8922 31.812C30.4581 30.8678 30.7386 29.7799 30.6999 28.6797C30.6612 27.5796 30.305 26.5141 29.6742 25.6119C29.0434 24.7097 28.165 24.0093 27.145 23.5953C26.125 23.1812 25.007 23.0711 23.9258 23.2784C22.8241 23.4713 21.8059 23.9913 21.0036 24.7706C20.2013 25.55 19.6521 26.5527 19.4274 27.6485C19.2197 28.5919 19.255 29.5727 19.5301 30.4987C19.8052 31.4248 20.311 32.2658 21.0001 32.9428C21.0936 33.0315 21.1685 33.1379 21.2203 33.2559C21.2721 33.3738 21.2998 33.501 21.3018 33.6298V33.6345C21.3035 33.8153 21.2517 33.9926 21.1531 34.1441C21.0544 34.2956 20.9132 34.4146 20.7471 34.4861C18.4746 35.4275 16.6623 37.2233 15.7003 39.4872C15.0239 41.0376 14.6847 42.714 14.705 44.4054V45.6242C14.705 45.8855 14.7564 46.1443 14.8565 46.3858C14.9565 46.6272 15.1032 46.8466 15.288 47.0314C15.4728 47.2162 15.6923 47.3627 15.9338 47.4627C16.1752 47.5627 16.4341 47.6141 16.6954 47.614H33.3056C33.8333 47.614 34.3393 47.4043 34.7124 47.0312C35.0855 46.658 35.2951 46.152 35.2951 45.6243V44.3933C35.3153 42.7026 34.9755 41.0269 34.2982 39.4777C33.3344 37.2158 31.5214 35.4224 29.2491 34.4833Z" fill="white"/>
<path d="M47.5643 36.7293C46.6006 34.4675 44.7879 32.6742 42.5158 31.735C42.3511 31.6641 42.2108 31.5465 42.1122 31.3967C42.0137 31.247 41.9611 31.0716 41.9611 30.8923C41.96 30.7642 41.9852 30.6372 42.0351 30.5192C42.0851 30.4012 42.1588 30.2947 42.2516 30.2064C42.3083 30.1523 42.3627 30.0992 42.403 30.0563C42.6904 29.7541 42.9439 29.4214 43.159 29.0641C43.7249 28.1199 44.0055 27.032 43.9668 25.9318C43.9282 24.8316 43.572 23.7661 42.9412 22.8639C42.3104 21.9617 41.432 21.2613 40.412 20.8472C39.392 20.4331 38.2739 20.3231 37.1927 20.5304C36.091 20.7232 35.0727 21.2432 34.2704 22.0225C33.4681 22.8019 32.919 23.8047 32.6943 24.9004C32.4866 25.8439 32.5219 26.8246 32.797 27.7507C33.072 28.6767 33.5778 29.5178 34.2669 30.1948C34.3604 30.2834 34.4353 30.3898 34.4871 30.5078C34.5389 30.6257 34.5666 30.7529 34.5686 30.8817V30.8866C34.5703 31.0674 34.5186 31.2447 34.4199 31.3962C34.3212 31.5477 34.18 31.6667 34.0139 31.7382C33.1063 32.11 32.2636 32.6239 31.5176 33.2606C33.6108 34.5017 35.257 36.374 36.2198 38.609C37.0232 40.4306 37.4271 42.4033 37.4042 44.3941V44.8662H46.5717C47.0994 44.8662 47.6054 44.6566 47.9786 44.2835C48.3517 43.9104 48.5614 43.4044 48.5614 42.8767V41.645C48.5816 39.9542 48.2417 38.2785 47.5643 36.7293Z" fill="white"/>
<path d="M18.4846 33.2601C17.7371 32.6218 16.8924 32.1069 15.9826 31.735C15.8179 31.6641 15.6776 31.5465 15.579 31.3967C15.4804 31.247 15.4279 31.0716 15.4279 30.8923C15.4267 30.7642 15.452 30.6372 15.502 30.5192C15.552 30.4012 15.6257 30.2947 15.7186 30.2064C15.775 30.1523 15.8294 30.0992 15.87 30.0563C16.1572 29.754 16.4106 29.4213 16.6257 29.0641C17.1916 28.1199 17.4722 27.032 17.4336 25.9318C17.395 24.8316 17.0388 23.7661 16.408 22.8639C15.7772 21.9616 14.8988 21.2612 13.8788 20.8472C12.8588 20.4331 11.7407 20.3231 10.6595 20.5304C9.55775 20.7233 8.53952 21.2432 7.73723 22.0226C6.93494 22.802 6.38573 23.8047 6.16101 24.9005C5.95334 25.8439 5.9887 26.8246 6.26377 27.7507C6.53885 28.6767 7.04462 29.5177 7.73366 30.1948C7.82721 30.2834 7.90209 30.3898 7.9539 30.5078C8.00572 30.6258 8.03342 30.7529 8.03538 30.8817V30.8866C8.03709 31.0674 7.98536 31.2447 7.88667 31.3962C7.78799 31.5477 7.64676 31.6667 7.4807 31.7382C5.20815 32.6796 3.39591 34.4753 2.43382 36.7392C1.75746 38.2896 1.41815 39.966 1.43835 41.6574V42.8767C1.43834 43.138 1.4898 43.3967 1.58977 43.6381C1.68975 43.8795 1.8363 44.0988 2.02105 44.2835C2.2058 44.4683 2.42512 44.6148 2.66651 44.7148C2.9079 44.8148 3.16661 44.8662 3.42788 44.8662H12.5962V44.4058C12.5734 42.4151 12.9763 40.4424 13.778 38.6201C14.74 36.3803 16.388 34.5035 18.4846 33.2601Z" fill="white"/>
</svg>
