<svg width="50" height="41" viewBox="0 0 50 41" fill="none" xmlns="http://www.w3.org/2000/svg">
<g clip-path="url(#clip0_28_193)">
<path d="M4.72517 0H40.8614C42.1143 0.00108441 43.3155 0.507087 44.2014 1.40692C45.0873 2.30676 45.5855 3.52688 45.5866 4.79944V16.3803C44.983 16.2767 44.3677 16.2629 43.7602 16.3394C43.611 16.3394 43.4618 16.3762 43.3127 16.4049V10.7742H2.27792V29.9597H28.8469C28.4031 30.6608 28.1054 31.4468 27.972 32.2693H24.2427V38.6863H27.1092L27.0649 39.0221C26.9778 39.68 26.9955 40.3478 27.1173 41H4.72517C3.47263 40.9978 2.272 40.4915 1.38632 39.5919C0.500645 38.6923 0.00213198 37.4728 0 36.2006L0 4.79944C0.00213198 3.52722 0.500645 2.30772 1.38632 1.40812C2.272 0.508515 3.47263 0.0021655 4.72517 0ZM39.1882 38.6003L33.1407 39.8288L34.0155 33.2767L39.1882 38.6003ZM35.9225 31.3274L44.0747 22.7277C44.1604 22.6302 44.2768 22.5659 44.4039 22.5457C44.5311 22.5255 44.6613 22.5508 44.7722 22.6172L49.3965 27.1627C49.4458 27.2124 49.4841 27.2721 49.509 27.3379C49.5339 27.4037 49.5448 27.4741 49.541 27.5445C49.5372 27.6149 49.5188 27.6837 49.4869 27.7464C49.4551 27.809 49.4105 27.8641 49.3562 27.908L41.0952 36.6224L35.9225 31.3274ZM20.3601 13.78L28.355 19.4394C28.4831 19.5252 28.5939 19.635 28.6816 19.7629C28.7667 19.8875 28.8268 20.028 28.8583 20.1763C28.8898 20.3245 28.8921 20.4777 28.8651 20.6268C28.8382 20.776 28.7824 20.9183 28.7011 21.0455C28.6198 21.1728 28.5145 21.2824 28.3913 21.3682L20.4327 26.958C20.2655 27.0966 20.0631 27.1843 19.8488 27.2107C19.6346 27.2372 19.4173 27.2014 19.2223 27.1075C19.0273 27.0136 18.8625 26.8655 18.747 26.6802C18.6316 26.495 18.5702 26.2803 18.5701 26.0611V14.7423C18.5701 14.7423 18.7434 14.1321 18.7757 14.0789C18.9495 13.8288 19.2137 13.6587 19.5105 13.6057C19.8074 13.5528 20.1128 13.6213 20.3601 13.7963V13.78ZM21.9728 38.6863V32.2693H12.7846V38.6863H21.9728ZM10.5066 32.2693H2.27792V36.2006C2.28004 36.8591 2.53856 37.4901 2.99705 37.9558C3.45554 38.4215 4.07677 38.6841 4.72517 38.6863H10.5066V32.2693ZM33.1729 8.46045V2.31782H24.2427V8.46045H33.1729ZM35.4508 2.31782V8.46045H43.3086V4.79944C43.3065 4.14014 43.0474 3.50853 42.5881 3.04272C42.1287 2.57691 41.5065 2.3148 40.8574 2.31372L35.4508 2.31782ZM21.9648 8.46045V2.31782H12.7846V8.46045H21.9648ZM10.5066 8.46045V2.31782H4.72517C4.07677 2.31998 3.45554 2.58256 2.99705 3.04825C2.53856 3.51395 2.28004 4.14495 2.27792 4.80354V8.46454L10.5066 8.46045Z" fill="#657252"/>
</g>
<defs>
<clipPath id="clip0_28_193">
<rect width="49.5417" height="41" fill="white"/>
</clipPath>
</defs>
</svg>
