<svg width="44" height="50" viewBox="0 0 44 50" fill="none" xmlns="http://www.w3.org/2000/svg">
<g clip-path="url(#clip0_33_207)">
<path fill-rule="evenodd" clip-rule="evenodd" d="M7.16553 19.4132H28.5563C30.542 19.4132 32.1615 21.0368 32.1615 23.0184V38.6922C32.1615 40.6738 30.5379 42.2974 28.5563 42.2974H21.9482L26.7456 49.9959H22.2778L17.0451 42.9606L11.7594 49.9959H7.22656L11.9954 42.2974H7.16553C5.18392 42.2974 3.56038 40.6738 3.56038 38.6922V23.0184C3.56038 21.0368 5.17985 19.4132 7.16553 19.4132ZM7.25505 3.75163C9.257 3.75163 11.0718 4.56543 12.3861 5.87565C13.7004 7.18994 14.5101 9.00472 14.5101 11.0067C14.5101 13.0086 13.6963 14.8234 12.3861 16.1377C11.0718 17.452 9.257 18.2617 7.25505 18.2617C5.25309 18.2617 3.43831 17.4479 2.12402 16.1377C0.813802 14.8275 0 13.0127 0 11.0107C0 9.00879 0.813802 7.19401 2.12402 5.87972C3.43424 4.56543 5.25309 3.75163 7.25505 3.75163ZM10.144 8.12175C9.40348 7.38119 8.38216 6.92546 7.25505 6.92546C6.12793 6.92546 5.10661 7.38119 4.36605 8.12175C3.62549 8.8623 3.16976 9.88363 3.16976 11.0107C3.16976 12.1379 3.62549 13.1592 4.36605 13.8997C5.10661 14.6403 6.12793 15.096 7.25505 15.096C8.38216 15.096 9.40348 14.6403 10.144 13.8997C10.8846 13.1592 11.3403 12.1379 11.3403 11.0107C11.3444 9.88363 10.8846 8.85824 10.144 8.12175ZM24.6663 0C27.1891 0 29.4718 1.02132 31.1239 2.67334C32.7759 4.32536 33.7972 6.60807 33.7972 9.13086C33.7972 11.6536 32.7759 13.9364 31.1239 15.5884C29.4718 17.2404 27.1891 18.2617 24.6663 18.2617C22.1436 18.2617 19.8608 17.2404 18.2088 15.5884C16.5568 13.9364 15.5355 11.6536 15.5355 9.13086C15.5355 6.60807 16.5568 4.32536 18.2088 2.67334C19.8608 1.02132 22.1436 0 24.6663 0ZM28.8411 4.96012C27.7751 3.89404 26.298 3.23079 24.6663 3.23079C23.0347 3.23079 21.5617 3.88997 20.4915 4.96012C19.4255 6.0262 18.7622 7.50326 18.7622 9.13493C18.7622 10.7666 19.4214 12.2396 20.4915 13.3097C21.5576 14.3758 23.0347 15.0391 24.6663 15.0391C26.298 15.0391 27.771 14.3799 28.8411 13.3097C29.9113 12.2396 30.5705 10.7666 30.5705 9.13493C30.5705 7.50326 29.9072 6.0262 28.8411 4.96012ZM34.2082 36.6089V25.0326L43.9819 19.2708V42.5252L34.2082 36.6089Z" fill="#657252"/>
</g>
<defs>
<clipPath id="clip0_33_207">
<rect width="43.986" height="50" fill="white"/>
</clipPath>
</defs>
</svg>
